<?xml version="1.0" encoding="UTF-8"?>
<!DOCTYPE svg PUBLIC "-//W3C//DTD SVG 1.1//EN"
    "http://www.w3.org/Graphics/SVG/1.1/DTD/svg11.dtd" >
<svg contentScriptType="text/ecmascript" width="177.0"
     xmlns:xlink="http://www.w3.org/1999/xlink" zoomAndPan="magnify"
     contentStyleType="text/css"
     viewBox="-81.000000 -50.000000 177.000000 128.000000" height="128.0"
     preserveAspectRatio="xMidYMid meet" xmlns="http://www.w3.org/2000/svg"
     version="1.1">
    <g id="edges">
        <path stroke-linecap="round" fill="none"
              class="id_Ne000fcda21 id_N6f056b8004"
              d="M 58.660255,61.797592 A 60.724434,60.724434 0,0 1,82.260704,8.172503"
              stroke="#000000" stroke-width="1.0" stroke-opacity="0.8"/>
        <path stroke-linecap="round" fill="none"
              class="id_Ne000fcda21 id_N10154a9e49"
              d="M 52.182137,67.571449 A 76.575302,76.575302 0,0 1,1.958802,12.865920"
              stroke="#000000" stroke-width="1.0" stroke-opacity="0.8"/>
        <path stroke-linecap="round" fill="none"
              class="id_N868785f5d6 id_Nce81f5d37d"
              d="M -31.029152,51.261654 A 45.860111,45.860111 0,0 1,-67.199158,35.037918"
              stroke="#000000" stroke-width="1.0" stroke-opacity="0.8"/>
        <path stroke-linecap="round" fill="none"
              class="id_N868785f5d6 id_N10154a9e49"
              d="M -23.261808,41.227867 A 45.658463,45.658463 0,0 1,-10.311906,7.934426"
              stroke="#000000" stroke-width="1.0" stroke-opacity="0.8"/>
        <path stroke-linecap="round" fill="none"
              class="id_N509e8a98c6 id_N868785f5d6"
              d="M -69.014702,-23.290119 A 76.683029,76.683029 0,0 1,-22.606853,38.163078"
              stroke="#000000" stroke-width="1.0" stroke-opacity="0.8"/>
        <path stroke-linecap="round" fill="none"
              class="id_N509e8a98c6 id_N10154a9e49"
              d="M -68.849365,-26.995359 A 65.698049,65.698049 0,0 1,-8.359694,-9.943221"
              stroke="#000000" stroke-width="1.0" stroke-opacity="0.8"/>
        <path stroke-linecap="round" fill="none"
              class="id_N4e55722e29 id_N10154a9e49"
              d="M 33.274124,-40.197632 A 46.896395,46.896395 0,0 1,11.822586,-5.385393"
              stroke="#000000" stroke-width="1.0" stroke-opacity="0.8"/>
        <path stroke-linecap="round" fill="none"
              class="id_Nce81f5d37d id_N868785f5d6"
              d="M -66.383385,26.695400 A 45.860111,45.860111 0,0 1,-29.233912,40.504700"
              stroke="#000000" stroke-width="1.0" stroke-opacity="0.8"/>
        <path stroke-linecap="round" fill="none"
              class="id_N6f056b8004 id_Ne000fcda21"
              d="M 90.818031,9.162913 A 60.724434,60.724434 0,0 1,69.001945,63.535076"
              stroke="#000000" stroke-width="1.0" stroke-opacity="0.8"/>
        <path stroke-linecap="round" fill="none"
              class="id_N10154a9e49 id_Ne000fcda21"
              d="M 9.600441,2.803822 A 76.575302,76.575302 0,0 1,58.376030,58.807144"
              stroke="#000000" stroke-width="1.0" stroke-opacity="0.8"/>
        <path stroke-linecap="round" fill="none"
              class="id_N10154a9e49 id_N868785f5d6"
              d="M 1.181360,9.944406 A 45.658463,45.658463 0,0 1,-12.501400,42.947456"
              stroke="#000000" stroke-width="1.0" stroke-opacity="0.8"/>
    </g>
    <g id="arrows">
        <polyline fill="#000000" fill-opacity="0.8"
                  class="id_Ne000fcda21 id_N6f056b8004"
                  points="84.772354,6.531889 83.081009,9.428329 81.440399,6.916679"
                  stroke="none"/>
        <polyline fill="#000000" fill-opacity="0.8"
                  class="id_Ne000fcda21 id_N10154a9e49"
                  points="1.506138,9.900268 3.441628,12.639588 0.475975,13.092252"
                  stroke="none"/>
        <polyline fill="#000000" fill-opacity="0.8"
                  class="id_N868785f5d6 id_Nce81f5d37d"
                  points="-68.902824,32.568604 -65.964500,34.186085 -68.433815,35.889751"
                  stroke="none"/>
        <polyline fill="#000000" fill-opacity="0.8"
                  class="id_N868785f5d6 id_N10154a9e49"
                  points="-7.932868,6.106810 -9.398098,9.123944 -11.225714,6.744906"
                  stroke="none"/>
        <polyline fill="#000000" fill-opacity="0.8"
                  class="id_N509e8a98c6 id_N868785f5d6"
                  points="-22.479588,41.160378 -24.105505,38.226711 -21.108206,38.099445"
                  stroke="none"/>
        <polyline fill="#000000" fill-opacity="0.8"
                  class="id_N509e8a98c6 id_N10154a9e49"
                  points="-6.431166,-7.645226 -9.508691,-8.978957 -7.210696,-10.907485"
                  stroke="none"/>
        <polyline fill="#000000" fill-opacity="0.8"
                  class="id_N4e55722e29 id_N10154a9e49"
                  points="9.093663,-4.139205 11.199491,-6.749854 12.445680,-4.020932"
                  stroke="none"/>
        <polyline fill="#000000" fill-opacity="0.8"
                  class="id_Nce81f5d37d id_N868785f5d6"
                  points="-27.449879,42.916592 -30.439859,41.396717 -28.027964,39.612682"
                  stroke="none"/>
        <polyline fill="#000000" fill-opacity="0.8"
                  class="id_N6f056b8004 id_Ne000fcda21"
                  points="66.517746,65.216965 68.160995,62.292976 69.842880,64.777176"
                  stroke="none"/>
        <polyline fill="#000000" fill-opacity="0.8"
                  class="id_N10154a9e49 id_Ne000fcda21"
                  points="58.789806,61.778469 56.890366,59.014034 59.861694,58.600254"
                  stroke="none"/>
        <polyline fill="#000000" fill-opacity="0.8"
                  class="id_N10154a9e49 id_N868785f5d6"
                  points="-14.900497,44.748661 -13.402003,41.747910 -11.600799,44.147003"
                  stroke="none"/>
    </g>
    <g id="nodes">
        <circle fill="#000000" r="8.0" fill-opacity="0.8" class="id_Ne000fcda21"
                cx="59.893215" cy="69.70201"/>
        <circle fill="#000000" r="6.0" fill-opacity="0.8" class="id_N6f056b8004"
                cx="89.795654" cy="3.25066"/>
        <circle fill="#000000" r="10.0" fill-opacity="0.8"
                class="id_N10154a9e49" cx="-0.002741488" cy="0.014758242"/>
        <circle fill="#000000" r="9.0" fill-opacity="0.8" class="id_N868785f5d6"
                cx="-22.097786" cy="50.152275"/>
        <circle fill="#000000" r="6.0" fill-opacity="0.8" class="id_Nce81f5d37d"
                cx="-72.31015" cy="27.629967"/>
        <circle fill="#000000" r="6.0" fill-opacity="0.8" class="id_N509e8a98c6"
                cx="-74.63258" cy="-25.397108"/>
        <circle fill="#000000" r="5.0" fill-opacity="0.8" class="id_N4e55722e29"
                cx="33.51304" cy="-45.19192"/>
    </g>
</svg>